<svg width="600" height="295" viewBox="0 0 600 295" fill="none" xmlns="http://www.w3.org/2000/svg">
<path d="M590.37 285.064C586.649 285.064 583.582 283.469 581.824 281.016L585.3 279.176C586.485 280.893 588.489 281.752 590.533 281.752C592.7 281.752 594.009 280.771 594.009 279.176C594.009 277.5 591.76 277.132 588.734 276.477C585.218 275.741 582.07 274.515 582.07 270.794C582.07 267.4 585.259 264.824 589.348 264.824C592.987 264.824 595.808 266.46 597.689 268.954L594.213 270.671C593.109 268.995 591.351 268.095 589.348 268.095C587.262 268.095 585.913 269.077 585.913 270.549C585.913 272.143 587.221 272.429 590.738 273.125C594.254 273.82 597.893 275.087 597.893 278.89C597.893 282.447 594.745 285.064 590.37 285.064Z" fill="#DF2E28"/>
<path d="M572.179 284.858C566.25 284.858 562.57 280.932 562.57 275.004C562.57 269.034 566.536 264.904 572.015 264.904C577.699 264.904 581.093 268.707 581.093 274.799V276.271H566.577C566.823 279.583 568.908 281.587 572.179 281.587C575.45 281.587 576.881 279.992 577.617 278.111L581.174 279.501C579.866 282.486 577.126 284.858 572.179 284.858ZM566.496 273.245H576.963C576.799 269.934 574.959 268.175 571.934 268.175C569.031 268.175 566.904 270.097 566.496 273.245Z" fill="#DF2E28"/>
<path d="M554.253 285.064C550.532 285.064 547.465 283.469 545.707 281.016L549.183 279.176C550.368 280.893 552.372 281.752 554.416 281.752C556.583 281.752 557.892 280.771 557.892 279.176C557.892 277.5 555.643 277.132 552.617 276.477C549.101 275.741 545.952 274.515 545.952 270.794C545.952 267.4 549.142 264.824 553.23 264.824C556.87 264.824 559.691 266.46 561.572 268.954L558.096 270.671C556.992 268.995 555.234 268.095 553.23 268.095C551.145 268.095 549.796 269.077 549.796 270.549C549.796 272.143 551.104 272.429 554.621 273.125C558.137 273.82 561.776 275.087 561.776 278.89C561.776 282.447 558.628 285.064 554.253 285.064Z" fill="#DF2E28"/>
<path d="M537.55 285.064C533.829 285.064 530.762 283.469 529.004 281.016L532.479 279.176C533.665 280.893 535.669 281.752 537.713 281.752C539.88 281.752 541.189 280.771 541.189 279.176C541.189 277.5 538.94 277.132 535.914 276.477C532.398 275.741 529.249 274.515 529.249 270.794C529.249 267.4 532.439 264.824 536.527 264.824C540.166 264.824 542.988 266.46 544.869 268.954L541.393 270.671C540.289 268.995 538.531 268.095 536.527 268.095C534.442 268.095 533.093 269.077 533.093 270.549C533.093 272.143 534.401 272.429 537.918 273.125C541.434 273.82 545.073 275.087 545.073 278.89C545.073 282.447 541.925 285.064 537.55 285.064Z" fill="#DF2E28"/>
<path d="M519.359 284.858C513.43 284.858 509.75 280.932 509.75 275.004C509.75 269.034 513.716 264.904 519.195 264.904C524.879 264.904 528.272 268.707 528.272 274.799V276.271H513.757C514.002 279.583 516.088 281.587 519.359 281.587C522.63 281.587 524.061 279.992 524.797 278.111L528.354 279.501C527.046 282.486 524.306 284.858 519.359 284.858ZM513.675 273.245H524.143C523.979 269.934 522.139 268.175 519.113 268.175C516.21 268.175 514.084 270.097 513.675 273.245Z" fill="#DF2E28"/>
<path d="M491.516 284.532V265.233H495.523V268.872C496.545 266.296 498.508 264.824 501.451 264.824C505.622 264.824 508.157 267.646 508.157 272.797V284.532H504.109V273.002C504.109 269.976 502.842 268.381 500.225 268.381C497.24 268.381 495.523 270.876 495.523 275.292V284.532H491.516Z" fill="#DF2E28"/>
<path d="M484.273 262.125V257.873H488.608V262.125H484.273ZM484.396 284.532V265.233H488.444V284.532H484.396Z" fill="#DF2E28"/>
<path d="M474.975 285.064C471.255 285.064 468.188 283.469 466.43 281.016L469.905 279.176C471.091 280.893 473.094 281.752 475.139 281.752C477.306 281.752 478.614 280.771 478.614 279.176C478.614 277.5 476.366 277.132 473.34 276.477C469.823 275.741 466.675 274.515 466.675 270.794C466.675 267.4 469.864 264.824 473.953 264.824C477.592 264.824 480.413 266.46 482.294 268.954L478.819 270.671C477.715 268.995 475.957 268.095 473.953 268.095C471.868 268.095 470.519 269.077 470.519 270.549C470.519 272.143 471.827 272.429 475.343 273.125C478.86 273.82 482.499 275.087 482.499 278.89C482.499 282.447 479.35 285.064 474.975 285.064Z" fill="#DF2E28"/>
<path d="M454.941 284.859C450.607 284.859 448.031 281.874 448.031 276.967V265.232H452.079V276.763C452.079 279.748 453.388 281.383 456.004 281.383C459.194 281.383 460.666 278.644 460.666 274.473V265.232H464.673V284.532H460.666V281.22C459.603 283.591 457.722 284.859 454.941 284.859Z" fill="#DF2E28"/>
<path d="M437.724 284.94C435.067 284.94 432.9 283.713 431.55 281.71V284.531H427.625V256.932H431.55V268.012C432.9 266.009 435.067 264.823 437.765 264.823C442.713 264.823 446.434 268.544 446.434 274.759V274.8C446.434 281.015 442.754 284.94 437.724 284.94ZM436.784 281.505C440.014 281.505 442.222 279.093 442.222 274.922V274.636C442.222 270.507 440.096 268.258 436.784 268.258C433.431 268.258 431.346 270.956 431.346 274.8V275.127C431.346 278.93 433.349 281.505 436.784 281.505Z" fill="#DF2E28"/>
<path d="M408.793 284.531V265.232H412.8V268.789C413.372 266.54 414.885 265.068 418.402 265.068H419.015V268.994H417.175C413.74 268.994 412.8 270.711 412.8 274.636V284.531H408.793Z" fill="#DF2E28"/>
<path d="M397.124 284.858C391.441 284.858 387.516 280.81 387.516 274.922C387.516 269.034 391.523 264.904 397.206 264.904C402.89 264.904 406.856 269.034 406.856 274.922C406.856 280.728 402.808 284.858 397.124 284.858ZM397.124 281.464C400.6 281.464 402.808 278.97 402.808 275.045V274.881C402.808 270.833 400.641 268.298 397.206 268.298C393.772 268.298 391.564 270.833 391.564 274.881V275.045C391.564 279.011 393.69 281.464 397.124 281.464Z" fill="#DF2E28"/>
<path d="M379.226 284.531V268.667H375.996V265.232H379.226V263.269C379.226 258.812 380.494 257.177 384.46 256.932H387.567V260.612H386.095C383.52 260.612 383.192 260.816 383.192 263.556V265.232H387.118V268.667H383.192V284.531H379.226Z" fill="#DF2E28"/>
<path d="M365.207 284.532C361.691 284.368 360.791 282.774 360.75 279.707V268.667H357.684V265.233H360.75V261.471L364.635 259.059V265.233H368.805V268.667H364.635V279.216C364.635 280.443 365.125 281.016 366.352 281.016H368.642V284.532H365.207Z" fill="#DF2E28"/>
<path d="M339.898 284.532V265.233H343.905V268.872C344.928 266.296 346.89 264.824 349.834 264.824C354.005 264.824 356.54 267.646 356.54 272.797V284.532H352.492V273.002C352.492 269.976 351.224 268.381 348.608 268.381C345.623 268.381 343.905 270.876 343.905 275.292V284.532H339.898Z" fill="#DF2E28"/>
<path d="M326.762 285.021C322.633 285.021 320.098 282.772 320.098 279.461C320.098 275.126 323.328 274.145 327.621 273.205C330.892 272.51 332.896 272.305 333.305 271.242V270.956C333.305 269.361 332.119 268.134 329.175 268.134C326.313 268.134 324.759 269.443 324.595 271.61V271.855H320.547C320.67 267.521 324.105 264.904 329.216 264.904C334.163 264.904 337.107 267.112 337.107 272.019V281.546L337.148 284.531H333.264V281.628C331.955 283.917 329.543 285.021 326.762 285.021ZM327.498 281.955C330.32 281.955 332.977 280.524 333.305 276.762V274.39C332.119 275.208 330.074 275.535 328.194 275.985C325.986 276.557 324.186 277.253 324.186 279.297C324.186 280.892 325.372 281.955 327.498 281.955Z" fill="#DF2E28"/>
<path d="M315.578 284.532C312.062 284.368 311.162 282.774 311.121 279.707V268.667H308.055V265.233H311.121V261.471L315.006 259.059V265.233H319.176V268.667H315.006V279.216C315.006 280.443 315.496 281.016 316.723 281.016H319.013V284.532H315.578Z" fill="#DF2E28"/>
<path d="M300.186 285.064C296.465 285.064 293.399 283.469 291.641 281.016L295.116 279.176C296.302 280.893 298.305 281.752 300.35 281.752C302.517 281.752 303.825 280.771 303.825 279.176C303.825 277.5 301.576 277.132 298.551 276.477C295.034 275.741 291.886 274.515 291.886 270.794C291.886 267.4 295.075 264.824 299.164 264.824C302.803 264.824 305.624 266.46 307.505 268.954L304.03 270.671C302.926 268.995 301.168 268.095 299.164 268.095C297.079 268.095 295.729 269.077 295.729 270.549C295.729 272.143 297.038 272.429 300.554 273.125C304.071 273.82 307.71 275.087 307.71 278.89C307.71 282.447 304.561 285.064 300.186 285.064Z" fill="#DF2E28"/>
<path d="M285.668 262.125V257.873H290.002V262.125H285.668ZM285.791 284.532V265.233H289.839V284.532H285.791Z" fill="#DF2E28"/>
<path d="M276.366 285.064C272.645 285.064 269.579 283.469 267.82 281.016L271.296 279.176C272.482 280.893 274.485 281.752 276.53 281.752C278.697 281.752 280.005 280.771 280.005 279.176C280.005 277.5 277.756 277.132 274.73 276.477C271.214 275.741 268.066 274.515 268.066 270.794C268.066 267.4 271.255 264.824 275.344 264.824C278.983 264.824 281.804 266.46 283.685 268.954L280.209 270.671C279.105 268.995 277.347 268.095 275.344 268.095C273.258 268.095 271.909 269.077 271.909 270.549C271.909 272.143 273.218 272.429 276.734 273.125C280.25 273.82 283.889 275.087 283.889 278.89C283.889 282.447 280.741 285.064 276.366 285.064Z" fill="#DF2E28"/>
<path d="M259.663 285.064C255.942 285.064 252.875 283.469 251.117 281.016L254.593 279.176C255.778 280.893 257.782 281.752 259.826 281.752C261.993 281.752 263.302 280.771 263.302 279.176C263.302 277.5 261.053 277.132 258.027 276.477C254.511 275.741 251.363 274.515 251.363 270.794C251.363 267.4 254.552 264.824 258.641 264.824C262.28 264.824 265.101 266.46 266.982 268.954L263.506 270.671C262.402 268.995 260.644 268.095 258.641 268.095C256.555 268.095 255.206 269.077 255.206 270.549C255.206 272.143 256.514 272.429 260.031 273.125C263.547 273.82 267.186 275.087 267.186 278.89C267.186 282.447 264.038 285.064 259.663 285.064Z" fill="#DF2E28"/>
<path d="M239.251 285.021C235.121 285.021 232.586 282.772 232.586 279.461C232.586 275.126 235.816 274.145 240.109 273.205C243.38 272.51 245.384 272.305 245.793 271.242V270.956C245.793 269.361 244.607 268.134 241.663 268.134C238.801 268.134 237.247 269.443 237.084 271.61V271.855H233.036C233.158 267.521 236.593 264.904 241.704 264.904C246.651 264.904 249.595 267.112 249.595 272.019V281.546L249.636 284.531H245.752V281.628C244.444 283.917 242.031 285.021 239.251 285.021ZM239.987 281.955C242.808 281.955 245.466 280.524 245.793 276.762V274.39C244.607 275.208 242.563 275.535 240.682 275.985C238.474 276.557 236.675 277.253 236.675 279.297C236.675 280.892 237.861 281.955 239.987 281.955Z" fill="#DF2E28"/>
<path d="M215.448 294.182C209.11 294.182 205.676 292.219 205.676 288.621C205.676 286.699 207.025 285.187 209.233 284.369C207.27 283.878 206.044 282.611 206.044 281.016C206.044 279.34 207.311 278.072 209.519 277.581C207.843 276.273 206.78 274.351 206.78 272.102C206.78 267.932 210.255 264.824 214.917 264.824C217.86 264.824 220.273 266.092 221.622 268.095C222.317 266.378 223.626 265.233 225.67 265.233V269.404C224.648 269.036 223.421 269.117 222.563 270.058C222.726 270.712 222.849 271.366 222.849 272.061C222.849 276.436 219.619 279.258 214.712 279.258C213.813 279.258 212.954 279.135 212.136 278.89H211.85C210.378 278.808 209.56 279.462 209.56 280.28C209.56 281.22 210.746 281.834 212.545 281.834H216.552C222.685 281.834 225.793 283.837 225.793 287.763C225.793 291.77 221.908 294.182 215.448 294.182ZM214.835 276.15C217.533 276.15 219.251 274.556 219.251 272.143V271.98C219.251 269.608 217.411 267.891 214.835 267.891C212.341 267.891 210.501 269.608 210.501 271.98V272.143C210.501 274.515 212.218 276.15 214.835 276.15ZM215.571 291.156C219.66 291.156 222.195 289.97 222.195 288.049C222.195 286.127 220.477 285.268 216.429 285.268H214.017C211.4 285.268 209.192 286.372 209.192 288.294C209.192 290.093 211.441 291.156 215.571 291.156Z" fill="#DF2E28"/>
<path d="M187.973 284.532V265.233H191.98V268.872C193.002 266.296 194.965 264.824 197.908 264.824C202.079 264.824 204.614 267.646 204.614 272.797V284.532H200.566V273.002C200.566 269.976 199.299 268.381 196.682 268.381C193.697 268.381 191.98 270.876 191.98 275.292V284.532H187.973Z" fill="#DF2E28"/>
<path d="M180.734 262.125V257.873H185.069V262.125H180.734ZM180.857 284.532V265.233H184.905V284.532H180.857Z" fill="#DF2E28"/>
<path d="M163.074 284.531V256.973H166.999V274.227L174.85 265.232H179.511L172.683 272.469L179.961 284.531H175.545L170.025 275.25L166.999 278.684V284.531H163.074Z" fill="#DF2E28"/>
<path d="M151.406 284.858C145.722 284.858 141.797 280.81 141.797 274.922C141.797 269.034 145.804 264.904 151.487 264.904C157.171 264.904 161.137 269.034 161.137 274.922C161.137 280.728 157.089 284.858 151.406 284.858ZM151.406 281.464C154.881 281.464 157.089 278.97 157.089 275.045V274.881C157.089 270.833 154.922 268.298 151.487 268.298C148.053 268.298 145.845 270.833 145.845 274.881V275.045C145.845 279.011 147.971 281.464 151.406 281.464Z" fill="#DF2E28"/>
<path d="M131.23 284.858C125.546 284.858 121.621 280.81 121.621 274.922C121.621 269.034 125.628 264.904 131.312 264.904C136.995 264.904 140.961 269.034 140.961 274.922C140.961 280.728 136.913 284.858 131.23 284.858ZM131.23 281.464C134.705 281.464 136.913 278.97 136.913 275.045V274.881C136.913 270.833 134.746 268.298 131.312 268.298C127.877 268.298 125.669 270.833 125.669 274.881V275.045C125.669 279.011 127.795 281.464 131.23 281.464Z" fill="#DF2E28"/>
<path d="M112.088 284.94C109.43 284.94 107.263 283.713 105.914 281.71V284.531H101.988V256.932H105.914V268.012C107.263 266.009 109.43 264.823 112.129 264.823C117.076 264.823 120.797 268.544 120.797 274.759V274.8C120.797 281.015 117.117 284.94 112.088 284.94ZM111.147 281.505C114.377 281.505 116.585 279.093 116.585 274.922V274.636C116.585 270.507 114.459 268.258 111.147 268.258C107.794 268.258 105.709 270.956 105.709 274.8V275.127C105.709 278.93 107.713 281.505 111.147 281.505Z" fill="#DF2E28"/>
<path d="M88.0273 262.125V257.873H92.3615V262.125H88.0273ZM88.15 284.532V265.233H92.1979V284.532H88.15Z" fill="#DF2E28"/>
<path d="M75.0163 285.021C70.8866 285.021 68.3516 282.772 68.3516 279.461C68.3516 275.126 71.5817 274.145 75.875 273.205C79.146 272.51 81.1496 272.305 81.5585 271.242V270.956C81.5585 269.361 80.3727 268.134 77.4287 268.134C74.5666 268.134 73.0128 269.443 72.8493 271.61V271.855H68.8013C68.924 267.521 72.3586 264.904 77.4696 264.904C82.4171 264.904 85.3611 267.112 85.3611 272.019V281.546L85.4019 284.531H81.5176V281.628C80.2091 283.917 77.7967 285.021 75.0163 285.021ZM75.7523 281.955C78.5736 281.955 81.2313 280.524 81.5585 276.762V274.39C80.3727 275.208 78.3283 275.535 76.4474 275.985C74.2395 276.557 72.4404 277.253 72.4404 279.297C72.4404 280.892 73.6261 281.955 75.7523 281.955Z" fill="#DF2E28"/>
<path d="M51.7415 284.858C45.8128 284.858 42.1328 280.932 42.1328 275.004C42.1328 269.034 46.099 264.904 51.578 264.904C57.2614 264.904 60.6552 268.707 60.6552 274.799V276.271H46.1399C46.3852 279.583 48.4705 281.587 51.7415 281.587C55.0126 281.587 56.4437 279.992 57.1797 278.111L60.7369 279.501C59.4285 282.486 56.689 284.858 51.7415 284.858ZM46.0581 273.245H56.5255C56.3619 269.934 54.5219 268.175 51.4962 268.175C48.5931 268.175 46.467 270.097 46.0581 273.245Z" fill="#DF2E28"/>
<path d="M24.0195 284.531V256.973H27.9448V269.035C28.9261 266.377 30.8479 264.905 33.8327 264.905C38.0033 264.905 40.5384 267.644 40.5384 272.796V284.531H36.4904V273.001C36.4904 269.975 35.2229 268.38 32.6061 268.38C29.6212 268.38 27.9448 270.875 27.9448 275.291V284.531H24.0195Z" fill="#DF2E28"/>
<path d="M9.48679 284.531V261.02H0.859375V257.381H22.2439V261.02H13.5756V284.531H9.48679Z" fill="#DF2E28"/>
<path d="M570.326 227.625C541.325 226.276 533.906 213.124 533.569 187.832V96.7824H508.277V68.4557H533.569V37.4313L565.605 17.5352V68.4557H600.002V96.7824H565.605V183.786C565.605 193.902 569.652 198.624 579.769 198.624H598.653V227.625H570.326Z" fill="#DF2E28"/>
<path d="M468.113 42.827V7.75586H503.859V42.827H468.113ZM469.125 227.625V68.4559H502.51V227.625H469.125Z" fill="#DF2E28"/>
<path d="M329.23 227.626V0.337891H361.604V142.646L426.351 68.4568H464.794L408.478 128.145L468.503 227.626H432.083L386.558 151.076L361.604 179.403V227.626H329.23Z" fill="#DF2E28"/>
<path d="M243.513 230.322C196.639 230.322 164.266 196.937 164.266 148.377C164.266 99.8173 197.313 65.7578 244.187 65.7578C291.061 65.7578 323.772 99.8173 323.772 148.377C323.772 196.263 290.387 230.322 243.513 230.322ZM243.513 202.333C272.177 202.333 290.387 181.762 290.387 149.389V148.04C290.387 114.655 272.514 93.7473 244.187 93.7473C215.861 93.7473 197.651 114.655 197.651 148.04V149.389C197.651 182.1 215.186 202.333 243.513 202.333Z" fill="#DF2E28"/>
<path d="M79.2473 230.322C62.9703 230.322 45.1035 221.968 32.3675 208.867C15.1571 191.162 0 176.332 0 148.377C0 99.8173 33.0478 65.7578 79.9217 65.7578C126.796 65.7578 159.506 99.8173 159.506 148.377C159.506 196.263 126.121 230.322 79.2473 230.322ZM79.2473 202.333C107.911 202.333 126.121 181.762 126.121 149.389V148.04C126.121 114.655 108.248 93.7473 79.9217 93.7473C51.595 93.7473 33.385 114.655 33.385 148.04V149.389C33.385 182.1 50.9206 202.333 79.2473 202.333Z" fill="#DF2E28"/>
<path d="M32.3733 227.625V204.357V91.3873V0H0V227.625H32.3733Z" fill="#DF2E28"/>
</svg>
