<svg width="21" height="20" viewBox="0 0 21 20" xmlns="http://www.w3.org/2000/svg"><title>Pinterest-black</title><g id="Symbols" fill="none" fill-rule="evenodd"><g id="Social" transform="translate(-109)" fill="#000"><g transform="translate(109.4)" id="Pinterest-black"><g id="Icons"><g id="Black"><path d="M10 0a10 10 0 1 0-4.014 19.16c-.027-.698-.004-1.538.174-2.298.193-.811 1.286-5.448 1.286-5.448s-.318-.638-.318-1.583c0-1.481.86-2.588 1.928-2.588.91 0 1.35.683 1.35 1.502 0 .913-.584 2.281-.884 3.548-.25 1.062.532 1.926 1.578 1.926 1.895 0 3.17-2.433 3.17-5.317 0-2.19-1.475-3.831-4.16-3.831-3.033 0-4.923 2.261-4.923 4.787 0 .873.257 1.487.659 1.962.186.22.21.307.143.558-.047.183-.157.627-.203.802-.067.253-.272.345-.5.25-1.398-.57-2.049-2.1-2.049-3.82 0-2.84 2.396-6.248 7.147-6.248 3.818 0 6.331 2.765 6.331 5.73 0 3.923-2.18 6.853-5.396 6.853-1.079 0-2.095-.583-2.443-1.245 0 0-.58 2.304-.703 2.748-.212.77-.627 1.542-1.007 2.142.9.265 1.85.41 2.835.41C15.523 20 20 15.523 20 10S15.523 0 10 0" id="Pinterest"/></g></g></g></g></g></svg>