<svg width="20" height="20" viewBox="0 0 20 20" xmlns="http://www.w3.org/2000/svg"><g id="Symbols" fill="none" fill-rule="evenodd"><g id="Social" transform="translate(-153)"><g transform="translate(153.4)" id="Email"><path d="M10.655.342c5.098 0 8.358 3.492 8.358 8.405 0 4.272-2.938 6.385-5.466 6.385-1.354 0-2.48-.643-2.755-1.747h-.045c-.598.92-1.838 1.517-2.756 1.517-1.884 0-3.123-1.425-3.123-3.537 0-2.939 2.113-5.74 4.73-5.74.735 0 1.331.32 1.7 1.147h.045l.368-.964H14.1l-1.104 5.236c-.275 1.148.047 1.7.965 1.7 1.379 0 2.618-1.561 2.618-3.905 0-3.122-1.608-6.154-6.246-6.154-3.858 0-7.717 3.307-7.717 8.406 0 4.546 3.216 6.567 6.66 6.567 1.102 0 2.48-.368 3.398-.827l.828 2.112C12.078 19.678 10.61 20 8.956 20 4.316 20 0 17.244 0 11.183 0 4.66 4.822.343 10.655.343z" id="Path" fill="#000"/><path d="M8.864 12.467c.412 0 .78-.229 1.285-.917l.506-2.895a1.022 1.022 0 0 0-.92-.55c-1.193 0-1.928 1.792-1.928 3.031 0 .85.367 1.331 1.057 1.331z" id="Path" fill="#FFF"/></g></g></g></svg>